<?xml version="1.0" encoding="UTF-8"?>
<svg width="20px" height="20px" viewBox="0 0 20 20" version="1.1" xmlns="http://www.w3.org/2000/svg" xmlns:xlink="http://www.w3.org/1999/xlink">
    <!-- Generator: Sketch 58 (84663) - https://sketch.com -->
    <title>icon/list/20</title>
    <desc>Created with Sketch.</desc>
    <defs>
        <path d="M18.0055536,15.2708044 C18.5554929,15.2708044 19,15.7159623 19,16.2652508 C19,16.8145392 18.5554929,17.2596972 18.0055536,17.2596972 L6.85252516,17.2596972 C6.30258591,17.2596972 5.85807879,16.8145392 5.85807879,16.2652508 C5.85807879,15.7159623 6.30258591,15.2708044 6.85252516,15.2708044 L18.0055536,15.2708044 Z M2.18318292,15.2708044 C2.73312218,15.2708044 3.1776293,15.7159623 3.1776293,16.2652508 C3.1776293,16.8145392 2.73312218,17.2596972 2.18318292,17.2596972 L1.99509719,17.2596972 C1.44515793,17.2596972 1,16.8145392 1,16.2652508 C1,15.7159623 1.44515793,15.2708044 1.99509719,15.2708044 L2.18318292,15.2708044 Z M18.0055536,9.13543474 C18.5554929,9.13543474 19,9.58059268 19,10.1298811 C19,10.6791696 18.5554929,11.1243275 18.0055536,11.1243275 L6.85252516,11.1243275 C6.30258591,11.1243275 5.85807879,10.6791696 5.85807879,10.1298811 C5.85807879,9.58059268 6.30258591,9.13543474 6.85252516,9.13543474 L18.0055536,9.13543474 Z M2.18318292,9.13543474 C2.73312218,9.13543474 3.1776293,9.58059268 3.1776293,10.1298811 C3.1776293,10.6791696 2.73312218,11.1243275 2.18318292,11.1243275 L1.99509719,11.1243275 C1.44515793,11.1243275 1,10.6791696 1,10.1298811 C1,9.58059268 1.44515793,9.13543474 1.99509719,9.13543474 L2.18318292,9.13543474 Z M18.0055536,3 C18.5554929,3 19,3.44515793 19,3.99444637 C19,4.54373481 18.5554929,4.98889275 18.0055536,4.98889275 L6.85252516,4.98889275 C6.30258591,4.98889275 5.85807879,4.54373481 5.85807879,3.99444637 C5.85807879,3.44515793 6.30258591,3 6.85252516,3 L18.0055536,3 Z M2.18318292,3 C2.73312218,3 3.1776293,3.44515793 3.1776293,3.99444637 C3.1776293,4.54373481 2.73312218,4.98889275 2.18318292,4.98889275 L1.99509719,4.98889275 C1.44515793,4.98889275 1,4.54373481 1,3.99444637 C1,3.44515793 1.44515793,3 1.99509719,3 L2.18318292,3 Z" id="path-1"></path>
    </defs>
    <g id="icon/list/20" stroke="none" stroke-width="1" fill="none" fill-rule="evenodd">
        <mask id="mask-2" fill="white">
            <use xlink:href="#path-1"></use>
        </mask>
        <use id="Combined-Shape" fill="#575757" xlink:href="#path-1"></use>
        <g id="colour/grey/dark" mask="url(#mask-2)" fill="#575757">
            <rect id="colour" x="0" y="0" width="20" height="20"></rect>
        </g>
    </g>
</svg>