 <svg width="113" height="16" viewBox="0 0 113 16" fill="none" xmlns="http://www.w3.org/2000/svg">
<path fill-rule="evenodd" clip-rule="evenodd" d="M30.8729 11.7509C31.5129 12.9393 32.4335 13.9447 33.5508 14.6757C34.216 15.1125 34.9407 15.4463 35.7013 15.6663C36.4883 15.8909 37.3019 16.0031 38.119 15.9997C39.1828 16.0086 40.24 15.8264 41.2423 15.4614C42.1855 15.1164 43.0528 14.5845 43.7947 13.8959C44.5932 13.1723 45.2278 12.2791 45.654 11.2786C46.0789 10.239 46.2905 9.12121 46.2757 7.9945C46.2856 6.91665 46.0986 5.84638 45.7242 4.83884C45.3645 3.88423 44.8108 3.01862 44.0998 2.29923C43.3616 1.55177 42.4794 0.9697 41.5094 0.590061C40.4831 0.190877 39.393 -0.00886272 38.2951 0.0010983C37.183 -0.0156642 36.0761 0.159554 35.0209 0.519386C34.0709 0.85601 33.1986 1.38886 32.4582 2.08485C31.6581 2.82963 31.0206 3.73877 30.5874 4.75285C29.592 7.00028 29.6984 9.59775 30.8741 11.7521L30.8729 11.7509ZM35.9511 4.02961C36.2146 3.62167 36.6637 3.37993 37.1415 3.38881C37.7026 3.38881 38.2068 3.63147 38.6543 4.11677C39.1018 4.60208 39.5354 5.38226 39.9552 6.45731C40.1906 7.06802 40.3732 7.69866 40.5009 8.34199C40.621 8.93972 40.6831 9.54813 40.6863 10.1584C40.6863 10.9114 40.5477 11.5004 40.2707 11.9252C40.0228 12.3289 39.5852 12.5689 39.1194 12.5566C38.599 12.5566 38.1051 12.3151 37.6377 11.8322C37.1703 11.3492 36.7532 10.6531 36.3863 9.74373C36.1161 9.05919 35.8983 8.35425 35.7347 7.63524C35.5907 7.02473 35.5135 6.39973 35.5044 5.77176C35.5044 5.03987 35.6549 4.45994 35.9557 4.03196L35.9511 4.02961ZM13.6109 10.4045C13.6101 12.0607 12.9704 13.4071 11.6917 14.4437V14.4413C10.4131 15.4787 8.73454 15.9973 6.65613 15.9973C5.5284 16.0036 4.40576 15.8425 3.32322 15.5191C2.27174 15.2011 1.5687 14.8402 1.21411 14.4366C0.914014 14.0879 0.678773 13.5948 0.508386 12.9571C0.330003 12.2602 0.244039 11.5419 0.252806 10.8215C0.252806 10.37 0.332627 10.0362 0.492269 9.82029C0.65191 9.60434 0.905572 9.49636 1.25325 9.49636C1.68613 9.49636 2.11286 9.82147 2.53346 10.4717C2.67698 10.69 2.79211 10.8541 2.87883 10.9641C3.29428 11.5479 3.81811 12.0422 4.42037 12.4188C4.94239 12.7381 5.53908 12.907 6.14727 12.9076C6.52966 12.9246 6.9087 12.8281 7.23866 12.6296C7.5188 12.4459 7.65887 12.2103 7.65887 11.9229C7.65887 11.5389 7.12814 11.1584 6.06668 10.7815C5.59236 10.6166 5.21513 10.476 4.93499 10.3598C3.47979 9.78496 2.39108 9.06878 1.66886 8.21125C0.955721 7.37502 0.570241 6.29837 0.586672 5.18869C0.58744 3.7045 1.15386 2.48024 2.28593 1.51591C3.41801 0.551584 4.86937 0.0694198 6.64001 0.0694198C7.30245 0.0700677 7.96288 0.14392 8.60982 0.289692L8.83896 0.340674C9.3485 0.454055 9.60505 0.511142 9.61717 0.511142C9.84709 0.503263 10.0755 0.470491 10.2987 0.413374C10.4925 0.361821 10.6907 0.329086 10.8905 0.315606C11.1321 0.313688 11.37 0.375775 11.5812 0.495829C11.8342 0.653514 12.057 0.857093 12.2386 1.09657C12.5827 1.50817 12.8676 1.96787 13.0848 2.46179C13.2722 2.87047 13.3749 3.31445 13.3864 3.76575C13.4042 4.20251 13.2528 4.6288 12.965 4.95192C12.6849 5.25652 12.2902 5.42303 11.8817 5.40896C11.4742 5.40896 10.9461 5.08739 10.2976 4.44424C10.0903 4.2381 9.92686 4.08497 9.80598 3.98131C9.51187 3.70018 9.16906 3.47767 8.79517 3.32521C8.42701 3.17019 8.03282 3.09016 7.6347 3.08962C7.24864 3.08962 6.94663 3.16815 6.72865 3.32521C6.51731 3.47218 6.39467 3.72002 6.404 3.98131C6.404 4.5208 7.1857 5.02613 8.74912 5.4973C8.97707 5.56562 9.144 5.61745 9.25107 5.65161C10.8406 6.1377 11.9646 6.74512 12.6231 7.47386C13.2816 8.20261 13.6109 9.1795 13.6109 10.4045ZM17.3536 15.724C16.111 15.724 15.1742 15.5925 14.5433 15.3294L14.5376 15.3283C13.9059 15.0613 13.5901 14.6686 13.5901 14.1503C13.5901 13.6697 13.871 13.3164 14.4328 13.0902L14.4494 13.0829L14.4495 13.0829C14.5617 13.0337 14.6426 12.9982 14.6942 12.9724C14.8607 12.8962 14.9862 12.4785 15.0706 11.7191C15.1676 10.6199 15.2091 9.51626 15.195 8.41266C15.1911 6.53661 15.1662 5.19613 15.1201 4.39122C15.0741 3.5863 14.9973 3.11513 14.8899 2.97771C14.883 2.97182 14.6861 2.87169 14.2993 2.68087C13.9155 2.49162 13.7236 2.20067 13.7236 1.80803C13.7236 1.29445 14.0613 0.909269 14.7368 0.652481C15.4122 0.395694 16.4249 0.2673 17.7749 0.2673C19.1657 0.26887 20.1534 0.376847 20.7383 0.591229C21.3231 0.805612 21.6155 1.15899 21.6155 1.65136C21.6232 1.86172 21.5726 2.07001 21.4693 2.2521C21.3726 2.41701 21.1723 2.58546 20.8707 2.77039C20.6559 2.88482 20.4815 3.06525 20.3722 3.28632C20.2881 3.48539 20.2467 3.86115 20.2467 4.42773V5.23815C20.2467 5.69518 20.3342 5.98142 20.5115 6.09921C20.6888 6.21543 21.1155 6.27354 21.7917 6.27354C22.1941 6.27733 22.5964 6.26003 22.9971 6.22172C23.2382 6.2057 23.4752 6.15043 23.6993 6.05798C23.7983 6.0113 23.8705 5.92041 23.895 5.8118C23.9427 5.56882 23.9613 5.32081 23.9503 5.07324V4.79642C23.9561 4.37797 23.9175 3.96011 23.8352 3.55018C23.7615 3.21722 23.6613 2.9993 23.5347 2.89643C23.4447 2.83235 23.3509 2.77412 23.2538 2.7221C22.8393 2.48259 22.6321 2.16062 22.6321 1.7562C22.6329 1.21514 22.9337 0.831526 23.5347 0.605364C24.1357 0.379203 25.2248 0.266118 26.802 0.266118C28.1774 0.265336 29.1509 0.37292 29.7227 0.588873C30.2945 0.804827 30.5804 1.16527 30.5804 1.67021C30.5804 2.10055 30.3118 2.46256 29.7745 2.75626C29.6287 2.83577 29.488 2.92469 29.3532 3.02247C29.2196 3.12613 29.1264 3.46772 29.0734 4.04962C29.0197 4.6323 28.9928 5.88522 28.9928 7.80838C28.9928 9.43785 29.0162 10.6652 29.0631 11.4906C29.1099 12.3159 29.1839 12.7934 29.2853 12.9229C29.2853 12.93 29.4629 13.038 29.8183 13.2469C30.1591 13.4292 30.3666 13.7961 30.3513 14.1892C30.3506 14.7232 30.0436 15.1115 29.4303 15.3542C28.8171 15.5968 27.8423 15.7182 26.5061 15.7182C25.1146 15.7182 24.103 15.6004 23.4714 15.3648C22.8397 15.1292 22.5239 14.7515 22.5239 14.2316C22.5176 13.9958 22.5767 13.7631 22.6943 13.5602C22.8319 13.349 23.0176 13.1752 23.2354 13.0537L23.4265 12.95C23.6406 12.8322 23.7638 12.7144 23.7972 12.5967C23.8375 12.3422 23.8697 11.9947 23.8973 11.5671C23.925 11.1396 23.9376 10.6778 23.9376 10.1972C23.9346 9.62082 23.8425 9.27608 23.6613 9.163C23.4802 9.04992 23.0581 8.99337 22.395 8.99337C21.9642 8.98831 21.5336 9.01073 21.1055 9.06052C20.8395 9.08414 20.5795 9.15551 20.3376 9.27137C20.2306 9.32985 20.1565 9.4362 20.1373 9.55878C20.0877 9.80947 20.0672 10.0653 20.0763 10.3209C20.0701 10.9159 20.1085 11.5106 20.1914 12.0996C20.264 12.5731 20.3561 12.8511 20.4712 12.9324C20.5072 12.9572 20.556 12.988 20.6172 13.0266L20.6173 13.0267C20.646 13.0449 20.6776 13.0648 20.7118 13.0867C21.1915 13.3921 21.4313 13.7412 21.4313 14.1338C21.4313 14.6678 21.094 15.0664 20.4194 15.3294C19.7447 15.5925 18.7228 15.724 17.3536 15.724ZM54.2504 10.176C54.0501 10.176 53.8417 10.1713 53.6241 10.1607L53.6184 10.1736C53.4008 10.1642 53.182 10.1477 52.9518 10.1277C52.9518 10.2373 52.9518 10.3833 52.9414 10.5682C52.9311 10.7532 52.9311 10.8828 52.9311 10.9581C52.9202 11.4114 52.9522 11.8646 53.0266 12.3116C53.0895 12.6194 53.1947 12.8346 53.3421 12.9571C53.4589 13.0428 53.5825 13.1184 53.7116 13.1832C54.1721 13.4298 54.4024 13.7549 54.4024 14.1586C54.4016 14.72 54.0839 15.1292 53.4491 15.386C52.8144 15.6428 51.7982 15.7711 50.4006 15.7711C48.917 15.7704 47.834 15.6369 47.1517 15.3707C46.4694 15.1044 46.1282 14.6804 46.1282 14.0985C46.1282 13.7106 46.3328 13.3964 46.7419 13.1562C47.1509 12.9159 47.3785 12.7564 47.4246 12.6779C47.5458 12.4934 47.6314 11.8506 47.6813 10.7496C47.7312 9.64868 47.7561 7.58339 47.7561 4.55376C47.7561 3.93888 47.7043 3.49952 47.6007 3.23566C47.4975 2.97305 47.2985 2.76182 47.0458 2.6467C46.9652 2.60665 46.8558 2.55835 46.7154 2.50299C46.1781 2.27761 45.9095 1.9529 45.9095 1.52885C45.893 1.15393 46.0988 0.80575 46.431 0.646579C46.7787 0.462037 47.3271 0.369766 48.0762 0.369766C48.3099 0.369766 48.5908 0.380368 48.9224 0.400392C49.2539 0.420417 49.4692 0.431017 49.5694 0.431017C49.9831 0.431017 50.7149 0.391754 51.7648 0.313225C52.8148 0.234697 53.6506 0.195432 54.2723 0.195432C56.2839 0.194648 57.7859 0.591216 58.7783 1.38514C59.7707 2.17906 60.2669 3.37937 60.2669 4.98606C60.2669 6.6273 59.7423 7.9026 58.6931 8.81196C57.6439 9.72132 56.163 10.176 54.2504 10.176ZM52.9069 3.15556C52.8301 3.3668 52.7918 3.86938 52.7918 4.66331L52.7964 4.66095V6.22052C52.7964 6.80163 52.8228 7.16758 52.8758 7.31835C52.9282 7.46775 53.0739 7.56083 53.2281 7.54334C53.7845 7.53941 54.222 7.34113 54.5405 6.94848C54.859 6.55584 55.0183 6.00614 55.0183 5.29939C55.0183 4.5196 54.8709 3.91415 54.5762 3.48302C54.304 3.06486 53.8397 2.82063 53.349 2.83752C53.1468 2.82393 52.9628 2.95635 52.9069 3.15556ZM66.6207 6.12044C66.6138 5.93511 66.6103 5.68264 66.6103 5.36303V4.42069C66.6103 3.67938 66.6556 3.21292 66.7462 3.02131C66.8367 2.8297 67.0259 2.7339 67.3137 2.7339C67.8034 2.7339 68.1653 2.88075 68.3994 3.17444C68.6335 3.46814 68.7509 3.92321 68.7517 4.53966C68.7517 5.34615 68.6365 5.91862 68.4063 6.25707C68.176 6.59553 67.7923 6.76476 67.255 6.76476C67.1779 6.76417 67.1009 6.75747 67.0248 6.74474C66.9373 6.7306 66.8141 6.70351 66.6529 6.66228C66.6391 6.48559 66.6299 6.3089 66.623 6.12044H66.6207ZM66.9914 9.22545C67.0841 9.20847 67.1781 9.20019 67.2723 9.20071C68.0221 9.20071 68.6177 10.09 69.0591 11.8687C69.0804 11.9544 69.0993 12.0289 69.1153 12.0924L69.1154 12.0929L69.1155 12.0931C69.134 12.1662 69.1487 12.2245 69.1592 12.268L69.1788 12.3611C69.5334 13.7432 69.9785 14.66 70.5143 15.1115C70.8484 15.382 71.235 15.5768 71.6482 15.6828C72.1749 15.8192 72.7169 15.8834 73.26 15.8737C74.2977 15.8737 75.1293 15.7166 75.7548 15.4025C75.94 15.3095 76.0978 15.208 76.2283 15.098C76.3459 15.1643 76.479 15.2258 76.6275 15.2823L76.6344 15.2906C77.3505 15.5639 78.3571 15.7005 79.6542 15.7005C81.0533 15.7005 82.0895 15.5756 82.7626 15.3259C83.4357 15.0762 83.7734 14.691 83.7757 14.1704C83.7757 13.7934 83.5481 13.4373 83.093 13.102C82.9532 13.004 82.819 12.8978 82.6912 12.7839C82.5634 12.6603 82.4736 12.4518 82.4195 12.1573C82.3534 11.6542 82.3264 11.1464 82.3389 10.6389C82.3389 8.1064 82.3673 6.2708 82.4241 5.13214C82.4809 3.99348 82.5761 3.32599 82.7096 3.12967C82.8881 2.97453 83.0769 2.83243 83.2749 2.70443C83.6387 2.44765 83.8206 2.13118 83.8206 1.75503C83.8206 1.23595 83.5051 0.854697 82.8742 0.611259C82.2434 0.367821 81.2494 0.246495 79.8925 0.247276C78.5163 0.247276 77.4894 0.375674 76.8117 0.632462C76.134 0.88925 75.7951 1.28189 75.7951 1.81039C75.7951 2.18654 76.0285 2.51832 76.4951 2.80574C76.662 2.90822 76.7852 2.99067 76.8646 3.05192C77.0182 3.17521 77.1268 3.39588 77.1905 3.71392C77.2676 4.23892 77.2992 4.76988 77.2849 5.30058C77.2849 5.48552 77.2849 5.83183 77.2757 6.33834C77.2664 6.84484 77.2653 7.26183 77.2653 7.59047C77.2653 9.494 77.2269 10.7897 77.1502 11.4776C77.0734 12.1655 76.9399 12.5864 76.7495 12.7404C76.6689 12.8028 76.5342 12.8911 76.3477 13.0078C76.1921 13.1021 76.0593 13.2011 75.9495 13.3046C75.8748 13.2692 75.7946 13.2351 75.7087 13.2021C75.6351 13.175 75.5752 13.1515 75.528 13.1303C75.3469 13.062 75.196 12.6446 75.0755 11.8781C75.0584 11.747 75.043 11.6385 75.0309 11.5534L75.026 11.5189C74.8986 10.7462 74.716 10.1273 74.478 9.66246C74.2528 9.21183 73.9236 8.82411 73.519 8.53283C73.2402 8.35082 72.9347 8.21561 72.6142 8.13233C72.2051 8.00983 72.0009 7.86966 72.0017 7.71181C72.0017 7.58224 72.1594 7.43539 72.4748 7.27127C72.6312 7.19631 72.7824 7.11052 72.9273 7.01448C73.3701 6.72177 73.7305 6.31571 73.9726 5.83656C74.2124 5.33672 74.3316 4.78537 74.3203 4.22869C74.3203 2.9581 73.8506 1.98238 72.9112 1.30154C71.9717 0.620698 70.6259 0.28067 68.8737 0.281454C68.5329 0.281454 67.9159 0.295197 67.0225 0.322682C66.1291 0.350167 65.4053 0.36391 64.8512 0.36391C64.5104 0.36391 64.1125 0.360376 63.6573 0.353308C63.2022 0.346241 62.9148 0.342707 62.795 0.342707C61.8978 0.342707 61.2224 0.445579 60.7688 0.651324C60.3152 0.857068 60.0877 1.16176 60.0861 1.56539C60.0861 1.96275 60.3471 2.29846 60.869 2.57252C61.011 2.6416 61.1483 2.72031 61.28 2.80811C61.4335 2.91726 61.5406 3.2247 61.6012 3.73042C61.6618 4.23615 61.6921 5.33201 61.6921 7.01802V7.79898C61.7055 9.05736 61.6536 10.3156 61.5367 11.5683C61.4331 12.5193 61.3007 13.0392 61.1395 13.1279L60.9196 13.2457C60.3632 13.5473 60.0854 13.9006 60.0861 14.3058C60.0861 14.8194 60.4054 15.1893 61.044 15.4155C61.6825 15.6416 62.731 15.7547 64.1892 15.7547C65.6475 15.7547 66.6621 15.6506 67.2332 15.4425C67.8042 15.2344 68.0901 14.8767 68.0908 14.3695C68.0908 13.9525 67.8356 13.5901 67.3253 13.2822C67.2138 13.2179 67.1065 13.1463 67.0041 13.0678C66.9027 12.9925 66.8325 12.8429 66.7922 12.6202C66.7408 12.1905 66.7208 11.7573 66.7324 11.3245V9.29377C66.8187 9.26668 66.9062 9.2443 66.9925 9.22663L66.9914 9.22545ZM87.5254 0.333278C87.3252 0.316255 87.1287 0.267785 86.9429 0.189571C86.7571 0.111214 86.5606 0.0627377 86.3604 0.0458639C86.0707 0.0597043 85.7937 0.171571 85.5729 0.363904C85.2536 0.629196 84.9774 0.944451 84.7543 1.298C84.4205 1.79863 84.141 2.335 83.9208 2.89762C83.7388 3.3367 83.6369 3.80621 83.6203 4.28286C83.6041 4.70676 83.742 5.12177 84.0072 5.44783C84.2487 5.74412 84.6088 5.91188 84.9857 5.90369C85.2951 5.90581 85.5974 5.80903 85.8503 5.62688C86.1113 5.44312 86.4329 5.08974 86.8151 4.56674L86.8746 4.4783C86.9248 4.40366 86.9846 4.31454 87.0546 4.21337C87.4022 3.69351 87.6962 3.43397 87.9364 3.43476C88.1667 3.43476 88.3198 3.57375 88.4061 3.84939C88.4925 4.12502 88.5374 4.7505 88.5374 5.72111V6.67523C88.5374 8.47039 88.4756 9.88822 88.352 10.9287C88.2285 11.9692 88.0496 12.5786 87.8155 12.7569C87.6533 12.8578 87.4827 12.9437 87.3055 13.0137C86.7046 13.2681 86.4041 13.6242 86.4041 14.082C86.4041 14.6027 86.7767 15.0083 87.522 15.2988C88.2672 15.5894 89.3122 15.7351 90.6569 15.7358C92.3154 15.7358 93.5143 15.6039 94.2534 15.3401C94.9925 15.0762 95.3621 14.6467 95.3621 14.0514C95.3621 13.6203 95.118 13.2952 94.6299 13.0761C94.5559 13.0418 94.4903 13.0097 94.433 12.9816C94.3859 12.9585 94.3445 12.9382 94.3087 12.9218C94.036 12.7751 93.8263 12.5299 93.7204 12.2339C93.6114 11.9323 93.5565 11.4121 93.5557 10.6731C93.5557 9.91217 93.5722 8.89327 93.6052 7.6164C93.6382 6.33952 93.6571 5.44587 93.6617 4.93544V4.22868C93.6467 4.00403 93.69 3.77933 93.7871 3.57729C93.8671 3.43896 94.016 3.35802 94.1728 3.36762C94.4077 3.36762 94.6821 3.6511 94.996 4.21808C95.103 4.41597 95.194 4.57146 95.2677 4.68925C95.4595 5.04586 95.7247 5.35569 96.0448 5.59743C96.3121 5.79791 96.6343 5.90713 96.9658 5.90958C97.48 5.90958 97.8799 5.73525 98.1654 5.38658C98.4509 5.03792 98.5929 4.54554 98.5914 3.90946C98.5838 3.32432 98.4666 2.7461 98.246 2.20618C98.2297 2.1645 98.2129 2.12303 98.1957 2.0818C98.2904 2.19257 98.415 2.28902 98.5694 2.37109C98.8061 2.48477 99.033 2.61875 99.2475 2.77158C99.4087 2.94199 99.5238 3.33895 99.5929 3.96247C99.662 4.58598 99.6973 5.60214 99.6988 7.01094C99.6988 9.07702 99.647 10.5636 99.5434 11.4706C99.4398 12.3776 99.2713 12.9544 99.038 13.2009C98.8891 13.3294 98.7283 13.4426 98.5579 13.539C98.0836 13.8123 97.8465 14.1472 97.8465 14.5438C97.8465 14.9403 97.9566 15.2121 98.1769 15.3589C98.3964 15.512 98.8185 15.5906 99.4433 15.5945H106.875C108.012 15.5887 109.147 15.6988 110.263 15.9231V15.9255C110.352 15.9481 110.442 15.9651 110.533 15.9761C110.775 15.9728 111.006 15.8756 111.18 15.704C111.378 15.5226 111.593 15.2062 111.826 14.7546C112.087 14.263 112.292 13.7425 112.438 13.2033C112.575 12.7012 112.645 12.1827 112.648 11.6614C112.648 11.1965 112.547 10.8431 112.343 10.6013C112.14 10.3594 111.844 10.2377 111.457 10.2361C111.056 10.2361 110.682 10.5357 110.335 11.1349C110.202 11.3645 110.055 11.5852 109.894 11.7957C109.575 12.2163 109.146 12.536 108.657 12.718C108.146 12.9175 107.506 13.0168 106.736 13.016C106.292 13.0284 105.848 13.0024 105.408 12.9383C105.205 12.9154 105.016 12.8232 104.871 12.6768C104.751 12.5071 104.678 12.3065 104.662 12.0972C104.608 11.5226 104.588 10.9452 104.601 10.368C104.601 9.7453 104.66 9.35501 104.777 9.19717C104.894 9.03933 105.143 8.9608 105.522 8.96159C105.856 8.96159 106.083 9.02087 106.202 9.13945C106.322 9.25803 106.422 9.57214 106.503 10.0818C106.512 10.1123 106.519 10.1434 106.524 10.1749C106.637 10.9193 106.921 11.2915 107.377 11.2915C107.885 11.2915 108.272 10.9684 108.536 10.3221C108.8 9.6758 108.932 8.71579 108.933 7.44206C108.933 6.40234 108.809 5.62374 108.561 5.10623C108.313 4.58873 107.945 4.33037 107.457 4.33116C106.988 4.33116 106.674 4.77327 106.513 5.6575C106.494 5.75998 106.476 5.8389 106.464 5.89309C106.397 6.20877 106.298 6.41726 106.168 6.52092C106.038 6.62458 105.815 6.67405 105.502 6.67405C105.069 6.67405 104.797 6.61241 104.686 6.48912C104.571 6.37133 104.521 6.00617 104.521 5.41014C104.515 4.89873 104.539 4.38739 104.592 3.87883C104.638 3.49247 104.701 3.251 104.782 3.15441C104.913 3.02428 105.082 2.94154 105.263 2.91882C105.493 2.87406 105.992 2.85168 106.76 2.85168C107.271 2.83646 107.782 2.913 108.268 3.07784C108.669 3.23124 109.025 3.48615 109.304 3.81876C109.402 3.93553 109.492 4.05869 109.574 4.18745C109.929 4.71438 110.303 4.97745 110.697 4.97666C111.057 4.98466 111.396 4.80267 111.594 4.49489C111.818 4.17292 111.93 3.73866 111.93 3.1921C111.93 2.25526 111.763 1.50296 111.429 0.935196C111.095 0.367436 110.653 0.0835553 110.104 0.0835553C110.077 0.0835553 110.004 0.0906228 109.884 0.104758C108.349 0.294554 106.804 0.383474 105.258 0.370969C104.148 0.370969 102.986 0.357227 101.772 0.329742C100.558 0.302257 99.8976 0.288514 99.7909 0.288514C99.1954 0.288514 98.7421 0.387853 98.4313 0.58653C98.1344 0.764751 97.9574 1.09566 97.9708 1.44759C97.9708 1.51346 97.9761 1.57678 97.9867 1.63755C97.7951 1.27241 97.564 0.929681 97.2973 0.61598C97.1466 0.434872 96.9576 0.291095 96.7447 0.195461C96.5362 0.101108 96.3108 0.0521687 96.0828 0.0517535C95.8263 0.0620681 95.5727 0.110477 95.3298 0.195461C95.1354 0.267433 94.9333 0.315669 94.7277 0.339168L87.5254 0.333278Z" fill="white"/>
</svg>
