<svg width="24" height="24" viewBox="0 0 24 24" fill="none" xmlns="http://www.w3.org/2000/svg">
<g clip-path="url(#clip0)">
<path d="M20.4 21.6C19.7388 21.6 19.2 21.0612 19.2 20.4C19.2 19.7388 19.7388 19.2 20.4 19.2C21.0612 19.2 21.6 19.7388 21.6 20.4C21.6 21.0612 21.0612 21.6 20.4 21.6ZM4.8 20.4C4.8 21.0612 4.2612 21.6 3.6 21.6C2.9388 21.6 2.4 21.0612 2.4 20.4C2.4 19.7388 2.9388 19.2 3.6 19.2C4.2612 19.2 4.8 19.7388 4.8 20.4ZM21.1992 7.0092L19.5348 12H4.8V4.9596L21.1992 7.0092ZM20.4 16.8H4.8V14.4H20.4C20.652 14.4001 20.8975 14.3208 21.1019 14.1735C21.3063 14.0262 21.4592 13.8182 21.5388 13.5792L23.9388 6.3792C23.9948 6.21077 24.0128 6.03201 23.9914 5.8558C23.97 5.67959 23.9098 5.51032 23.8151 5.36018C23.7204 5.21005 23.5936 5.08279 23.4438 4.98758C23.294 4.89237 23.1249 4.83159 22.9488 4.8096L4.8 2.5404V1.2C4.8 0.88174 4.67357 0.576516 4.44853 0.351472C4.22348 0.126428 3.91826 0 3.6 0L1.2 0C0.88174 0 0.576515 0.126428 0.351472 0.351472C0.126428 0.576516 0 0.88174 0 1.2C0 1.51826 0.126428 1.82348 0.351472 2.04853C0.576515 2.27357 0.88174 2.4 1.2 2.4H2.4V17.0208C1.70012 17.2675 1.09373 17.7247 0.664031 18.3297C0.234331 18.9348 0.00237851 19.6579 0 20.4C0 22.3848 1.6152 24 3.6 24C5.5848 24 7.2 22.3848 7.2 20.4C7.2 19.9764 7.1136 19.5768 6.9792 19.2H17.0208C16.8786 19.5843 16.8039 19.9903 16.8 20.4C16.8 22.3848 18.4152 24 20.4 24C22.3848 24 24 22.3848 24 20.4C24 18.4152 22.3848 16.8 20.4 16.8Z" fill="#858585"/>
</g>
<defs>
<clipPath id="clip0">
<rect width="24" height="24" fill="white"/>
</clipPath>
</defs>
</svg>
